<svg width="55" height="50" viewBox="0 0 100 50" fill="none" xmlns="http://www.w3.org/2000/svg">
<g clip-path="url(#clip0)">
<path d="M80.1 50.6H28C26.3 50.6 25 49.3 25 47.6C25 45.9 26.3 44.6 28 44.6H80.1C86.6 44.6 92 39.3 92 32.7C92 26.2 86.7 20.8 80.1 20.8C78.4 20.8 77.1 19.5 77.1 17.8C77.1 16.1 78.4 14.8 80.1 14.8C90 14.8 98 22.8 98 32.7C98 42.6 90 50.6 80.1 50.6Z" fill="white"/>
<path d="M17.9 50.6H3C1.3 50.6 0 49.3 0 47.6C0 45.9 1.3 44.6 3 44.6H17.9C19.6 44.6 20.9 45.9 20.9 47.6C20.9 49.3 19.6 50.6 17.9 50.6Z" fill="white"/>
<path d="M52.6 35.7H16.8C15.1 35.7 13.8 34.4 13.8 32.7C13.8 31 15.1 29.7 16.8 29.7H52.6C59.1 29.7 64.5 24.4 64.5 17.8V17.6C64.5 11.2 59.3 6 52.9 6C46.5 6 41.3 11.2 41.3 17.6V18.5C41.3 20.2 40 21.5 38.3 21.5C36.6 21.5 35.3 20.2 35.3 18.5V17.6C35.3 7.89998 43.2 0 52.9 0C62.6 0 70.5 7.89998 70.5 17.6V17.8C70.4 27.7 62.4 35.7 52.6 35.7Z" fill="white"/>
</g>
<defs>
<clipPath id="clip0">
<rect width="389" height="51" fill="white"/>
</clipPath>
</defs>
</svg>
