<svg width="200" height="51" viewBox="0 0 500 500" fill="white" xmlns="http://www.w3.org/2000/svg">
<g clip-path="url(#clip0)">
<path d="M215.1 13.5C215.2 13.4 215.4 13.4 215.5 13.3C215.9 13.8 216.3 14.3 216.7 14.8C225.3 26.1 233.8 37.4 242.4 48.7C242.8 49.3 243.5 49.9 244 50C245.5 50.2 247.1 50.1 248.6 50.1C248.6 33.6 248.6 17.3 248.6 0.899986C246.4 0.899986 244.3 0.899986 242 0.899986C242 13.2 242 25.4 242 38.1C241.3 37.2 240.9 36.8 240.5 36.3C231.9 25 223.3 13.6 214.7 2.29998C214.2 1.69998 213.6 0.999986 212.9 0.899986C211.5 0.699986 209.9 0.79998 208.5 0.79998C208.5 17.4 208.5 33.7 208.5 50C210.7 50 212.7 50 215 50C215.1 37.8 215.1 25.6 215.1 13.5ZM302.4 0.899986C302.4 3.79999 302.4 6.49997 302.4 9.19997C302.5 17.6 302.3 26.1 302.8 34.5C303.2 42.9 308.5 48.6 316.7 50C319.3 50.5 322 50.5 324.7 50.5C333.4 50.3 339.6 45.5 341.5 37.5C342 35.3 342.3 33.1 342.3 30.8C342.4 21.5 342.3 12.2 342.3 2.89999C342.3 2.19999 342.2 1.59999 342.2 0.899986C339.8 0.899986 337.6 0.899986 335.3 0.899986C335.3 1.79999 335.3 2.39997 335.3 3.09997C335.3 12.6 335.3 22.1 335.3 31.6C335.3 35.8 334.4 39.8 330.7 42.4C325.9 45.8 320.5 45.7 315.4 43.4C310.6 41.3 309.4 36.8 309.4 32C309.4 22.3 309.4 12.6 309.4 2.89999C309.4 2.19999 309.4 1.59998 309.4 0.79998C307 0.89998 304.8 0.899986 302.4 0.899986ZM199.4 50.1C199.4 48.1 199.4 46.3 199.4 44.3C191 44.3 182.8 44.3 174.6 44.3C174.6 38.8 174.6 33.4 174.6 27.8C182.5 27.8 190.2 27.8 197.9 27.8C197.9 25.8 197.9 24.1 197.9 22.1C190.1 22.1 182.3 22.1 174.6 22.1C174.6 16.8 174.6 11.7 174.6 6.29998C183 6.29998 191.2 6.29998 199.4 6.29998C199.4 4.29998 199.4 2.59998 199.4 0.79998C188.8 0.79998 178.2 0.79998 167.6 0.79998C167.6 17.2 167.6 33.6 167.6 50C168.3 50 168.9 50 169.4 50C179.4 50.1 189.3 50.1 199.4 50.1ZM351.1 44.6C355.8 48.7 361.3 50.2 367.1 50.6C372.5 50.9 377.7 50.5 382.4 47.5C386.6 44.8 388.7 40.8 388.4 35.8C388.2 30.9 385.2 27.9 381 26.1C378 24.9 374.8 24.1 371.8 23.1C368.7 22.1 365.6 21.3 362.6 20.1C360.3 19.2 359 17.3 359 14.7C359 10.7 361.2 7.79997 365.5 6.69997C372 4.99997 378 6.49998 383.4 10.3C383.9 10.7 384.5 11.1 385.1 11.5C386 9.69999 386.8 8.09999 387.5 6.49999C380.5 -1.00001 363.8 -1.70001 356.3 4.89999C350.8 9.69999 349 21.5 359.7 26C362.6 27.2 365.6 27.8 368.6 28.8C371.9 29.9 375.3 30.8 378.5 32.1C381 33.2 381.9 35.5 381.4 38.2C380.8 41.4 378.7 43.2 375.8 44.1C371.7 45.4 367.5 45.4 363.4 44.2C360 43.2 356.8 41.5 353.3 40C352.7 41.3 351.9 42.9 351.1 44.6ZM112.7 0.79998C113 1.69998 113.3 2.19998 113.5 2.79998C119.9 17.4 126.5 32 132.8 46.7C133.9 49.3 135.1 50.5 138.1 50.2C139.7 50 140.6 49.7 141.3 48.1C147.9 32.9 154.6 17.8 161.3 2.69997C161.5 2.19997 161.7 1.59998 162 0.79998C160.2 0.79998 158.6 0.89998 157.1 0.79998C155.5 0.59998 154.7 1.19997 154 2.69997C148.9 14.8 143.6 26.9 138.4 39C138.1 39.6 137.8 40.2 137.4 41.1C136.1 38.1 134.9 35.4 133.8 32.7C129.4 22.5 125.1 12.4 120.7 2.19997C120.4 1.59997 119.7 0.79998 119.1 0.79998C117 0.69998 115 0.79998 112.7 0.79998ZM279.4 50.1C279.4 35.6 279.4 21.3 279.4 6.69997C285 6.69997 290.4 6.69997 295.9 6.69997C295.9 4.69997 295.9 2.79999 295.9 0.999992C282.4 0.999992 269 0.999992 255.7 0.999992C255.7 2.99999 255.7 4.69997 255.7 6.69997C261.2 6.69997 266.6 6.69997 272.3 6.69997C272.3 21.3 272.3 35.6 272.3 50.1C274.7 50.1 276.9 50.1 279.4 50.1Z" fill="black"/>
<path d="M215.1 13.5C215.1 25.6 215.1 37.8 215.1 50C212.8 50 210.8 50 208.6 50C208.6 33.7 208.6 17.4 208.6 0.799991C210.1 0.799991 211.6 0.699997 213 0.899997C213.7 0.999997 214.3 1.69999 214.8 2.29999C223.4 13.6 232 25 240.6 36.3C241 36.8 241.3 37.2 242.1 38.1C242.1 25.4 242.1 13.2 242.1 0.899997C244.4 0.899997 246.5 0.899997 248.7 0.899997C248.7 17.3 248.7 33.6 248.7 50.1C247.1 50.1 245.6 50.2 244.1 50C243.5 49.9 242.9 49.3 242.5 48.7C233.9 37.4 225.4 26.1 216.8 14.8C216.4 14.3 216 13.8 215.6 13.3C215.4 13.4 215.3 13.5 215.1 13.5Z" fill="black"/>
<path d="M302.4 0.899994C304.8 0.899994 307 0.899994 309.4 0.899994C309.4 1.69999 309.4 2.3 309.4 3C309.4 12.7 309.4 22.4 309.4 32.1C309.4 36.9 310.7 41.4 315.4 43.5C320.6 45.8 325.9 45.9 330.7 42.5C334.3 39.9 335.3 35.9 335.3 31.7C335.4 22.2 335.3 12.7 335.3 3.19998C335.3 2.49998 335.3 1.8 335.3 1C337.6 1 339.8 1 342.2 1C342.2 1.6 342.3 2.3 342.3 3C342.3 12.3 342.4 21.6 342.3 30.9C342.3 33.1 342 35.4 341.5 37.6C339.6 45.6 333.4 50.4 324.7 50.6C322 50.7 319.3 50.6 316.7 50.1C308.4 48.6 303.2 43 302.8 34.6C302.4 26.2 302.5 17.7 302.4 9.29999C302.4 6.49999 302.4 3.79999 302.4 0.899994Z" fill="black"/>
<path d="M199.4 50.1C189.3 50.1 179.4 50.1 169.5 50.1C168.9 50.1 168.4 50.1 167.7 50.1C167.7 33.7 167.7 17.3 167.7 0.899994C178.3 0.899994 188.8 0.899994 199.5 0.899994C199.5 2.69999 199.5 4.39999 199.5 6.39999C191.3 6.39999 183 6.39999 174.7 6.39999C174.7 11.8 174.7 16.9 174.7 22.2C182.5 22.2 190.2 22.2 198 22.2C198 24.1 198 25.9 198 27.9C190.3 27.9 182.5 27.9 174.7 27.9C174.7 33.5 174.7 38.9 174.7 44.4C183 44.4 191.2 44.4 199.5 44.4C199.4 46.3 199.4 48.1 199.4 50.1Z" fill="black"/>
<path d="M351.1 44.6C351.9 42.9 352.7 41.3 353.3 40C356.7 41.5 359.9 43.2 363.4 44.2C367.4 45.4 371.7 45.4 375.8 44.1C378.7 43.2 380.8 41.4 381.4 38.2C381.9 35.5 381 33.2 378.5 32.1C375.3 30.7 371.9 29.8 368.6 28.8C365.6 27.9 362.5 27.2 359.7 26C349 21.5 350.8 9.7 356.3 4.9C363.8 -1.8 380.5 -0.999992 387.5 6.50001C386.7 8.10001 386 9.70001 385.1 11.5C384.5 11 384 10.6 383.4 10.3C377.9 6.5 372 4.99999 365.5 6.69999C361.2 7.79999 359 10.7 359 14.7C359 17.3 360.3 19.2 362.6 20.1C365.6 21.3 368.7 22.1 371.8 23.1C374.9 24.1 378.1 24.9 381 26.1C385.2 27.9 388.2 30.9 388.4 35.8C388.6 40.8 386.6 44.8 382.4 47.5C377.7 50.5 372.4 50.9 367.1 50.6C361.3 50.3 355.8 48.7 351.1 44.6Z" fill="black"/>
<path d="M112.7 0.799991C115 0.799991 117 0.699997 119 0.899997C119.6 0.999997 120.3 1.69999 120.6 2.29999C125 12.4 129.3 22.6 133.7 32.8C134.8 35.5 136 38.1 137.3 41.2C137.8 40.3 138.1 39.7 138.3 39.1C143.5 27 148.7 14.9 153.9 2.79999C154.5 1.29999 155.3 0.699997 157 0.899997C158.5 0.999997 160.1 0.899997 161.9 0.899997C161.6 1.7 161.4 2.19999 161.2 2.79999C154.5 17.9 147.8 33.1 141.2 48.2C140.5 49.8 139.7 50.1 138 50.3C135.1 50.6 133.8 49.4 132.7 46.8C126.4 32.1 119.9 17.5 113.4 2.9C113.2 2.3 113 1.69999 112.7 0.799991Z" fill="black"/>
<path d="M279.4 50.1C276.9 50.1 274.7 50.1 272.3 50.1C272.3 35.7 272.3 21.3 272.3 6.69998C266.6 6.69998 261.2 6.69998 255.7 6.69998C255.7 4.69998 255.7 2.9 255.7 1C269.1 1 282.4 1 295.9 1C295.9 2.9 295.9 4.69998 295.9 6.69998C290.4 6.69998 285 6.69998 279.4 6.69998C279.4 21.2 279.4 35.6 279.4 50.1Z" fill="black"/>
<path d="M80.1 50.6H28C26.3 50.6 25 49.3 25 47.6C25 45.9 26.3 44.6 28 44.6H80.1C86.6 44.6 92 39.3 92 32.7C92 26.2 86.7 20.8 80.1 20.8C78.4 20.8 77.1 19.5 77.1 17.8C77.1 16.1 78.4 14.8 80.1 14.8C90 14.8 98 22.8 98 32.7C98 42.6 90 50.6 80.1 50.6Z" fill="black"/>
<path d="M17.9 50.6H3C1.3 50.6 0 49.3 0 47.6C0 45.9 1.3 44.6 3 44.6H17.9C19.6 44.6 20.9 45.9 20.9 47.6C20.9 49.3 19.6 50.6 17.9 50.6Z" fill="black"/>
<path d="M52.6 35.7H16.8C15.1 35.7 13.8 34.4 13.8 32.7C13.8 31 15.1 29.7 16.8 29.7H52.6C59.1 29.7 64.5 24.4 64.5 17.8V17.6C64.5 11.2 59.3 6 52.9 6C46.5 6 41.3 11.2 41.3 17.6V18.5C41.3 20.2 40 21.5 38.3 21.5C36.6 21.5 35.3 20.2 35.3 18.5V17.6C35.3 7.89998 43.2 0 52.9 0C62.6 0 70.5 7.89998 70.5 17.6V17.8C70.4 27.7 62.4 35.7 52.6 35.7Z" fill="black"/>
</g>
<defs>
<clipPath id="clip0">
<rect width="389" height="51" fill="white"/>
</clipPath>
</defs>
</svg>
